<?xml version="1.0" standalone="no"?>
<!DOCTYPE svg PUBLIC "-//W3C//DTD SVG 20010904//EN"
 "http://www.w3.org/TR/2001/REC-SVG-20010904/DTD/svg10.dtd">
<svg version="1.0" xmlns="http://www.w3.org/2000/svg"
 width="1018.000000pt" height="1018.000000pt" viewBox="0 0 1018.000000 1018.000000"
 preserveAspectRatio="xMidYMid meet">

<g transform="translate(0.000000,1018.000000) scale(0.100000,-0.100000)"
fill="#000000" stroke="none">
<path d="M3499 8599 c-29 -29 -23 -79 13 -98 39 -22 79 -6 92 36 19 68 -55
112 -105 62z"/>
<path d="M4042 8600 c-26 -24 -29 -62 -6 -84 44 -45 114 -21 114 38 0 61 -63
87 -108 46z"/>
<path d="M3150 8204 c-120 -23 -261 -73 -355 -128 -81 -48 -189 -142 -240
-208 l-50 -66 -80 -12 c-176 -26 -291 -77 -403 -177 -106 -95 -196 -231 -223
-336 -13 -54 -17 -57 -84 -82 -74 -27 -153 -84 -231 -168 -109 -117 -172 -262
-189 -439 l-7 -66 -45 -17 c-109 -42 -250 -181 -314 -311 -41 -82 -69 -195
-69 -278 0 -68 -1 -70 -46 -118 -50 -54 -112 -176 -137 -273 -53 -202 -39
-477 34 -686 129 -370 368 -645 649 -748 142 -51 135 -51 802 -51 593 0 626 1
641 18 20 22 22 63 5 80 -9 9 -159 12 -615 12 -396 0 -620 4 -655 11 -172 35
-309 111 -435 241 -112 116 -186 232 -271 429 -46 108 -76 301 -69 454 9 234
47 338 169 473 36 39 39 47 33 81 -13 76 37 267 93 356 62 98 181 187 299 225
49 15 53 25 53 136 0 214 153 449 342 525 38 16 78 29 87 29 33 0 51 25 62 85
19 107 71 198 168 295 81 81 117 105 226 150 37 15 186 40 240 40 35 0 43 4
60 33 33 58 105 141 163 190 67 57 209 129 307 158 143 40 338 35 456 -13 70
-28 172 -102 204 -148 l25 -36 0 -1242 c0 -683 -3 -1242 -8 -1242 -4 0 -68 62
-143 138 l-137 137 -5 272 -5 271 49 42 c57 48 77 82 86 145 9 72 -12 129 -68
179 -66 59 -126 74 -203 52 -42 -12 -64 -27 -94 -61 -41 -47 -52 -78 -52 -152
0 -76 47 -145 130 -190 l35 -20 3 -189 c1 -103 0 -195 -3 -203 -4 -10 -40 21
-116 97 l-110 111 -62 3 -62 3 -5 605 -5 604 -27 15 c-25 14 -29 14 -55 -5
l-28 -21 -3 -602 -2 -601 -29 0 c-24 0 -72 40 -272 226 l-244 225 -5 49 c-7
60 -48 115 -111 147 -52 26 -84 28 -132 8 -118 -49 -159 -192 -86 -297 11 -14
40 -36 65 -48 55 -27 121 -23 177 10 l36 21 138 -127 c76 -70 188 -173 249
-230 l111 -104 154 0 153 0 343 -342 343 -343 0 -1116 c0 -884 3 -1119 13
-1127 27 -23 65 -24 86 -3 l21 21 0 1108 0 1108 347 347 347 347 151 0 151 0
215 201 c118 111 228 215 246 232 l31 29 33 -23 c77 -55 198 -29 252 53 67
104 13 242 -114 288 -96 34 -229 -74 -229 -185 0 -16 -32 -53 -106 -121 -59
-55 -166 -156 -238 -227 -115 -111 -135 -127 -161 -125 l-30 3 -3 601 c-2 465
-5 604 -15 612 -27 21 -54 22 -78 3 l-24 -19 -5 -599 -5 -598 -60 -3 -60 -3
-110 -110 c-61 -60 -114 -107 -118 -103 -9 9 -9 376 -1 398 3 9 14 16 24 16
22 0 106 74 125 111 22 41 19 141 -5 188 -66 130 -227 155 -330 52 -96 -97
-93 -208 10 -310 l55 -56 3 -263 4 -264 -151 -151 -151 -152 0 1250 1 1250 27
37 c40 52 109 107 170 135 247 113 621 39 834 -165 42 -40 94 -100 115 -133
37 -57 39 -59 83 -59 91 0 223 -31 307 -71 155 -76 280 -238 324 -419 7 -30
14 -56 15 -58 1 -2 38 -16 82 -32 107 -38 136 -54 190 -103 85 -79 156 -192
182 -292 7 -27 16 -99 19 -160 l6 -110 62 -21 c129 -44 242 -146 303 -270 57
-118 70 -167 70 -270 0 -79 0 -79 39 -117 76 -74 124 -169 152 -307 20 -92 17
-344 -4 -442 -85 -392 -337 -707 -652 -816 -114 -39 -161 -42 -770 -42 -561 0
-593 -1 -608 -18 -22 -24 -21 -55 1 -75 17 -15 76 -17 643 -17 655 0 666 1
798 46 211 71 455 307 576 554 115 235 145 360 145 606 0 246 -51 419 -165
559 -27 33 -33 52 -39 110 -24 234 -145 442 -319 548 -40 24 -80 46 -90 50
-21 8 -20 5 -42 142 -20 129 -58 221 -136 329 -80 110 -201 200 -305 226 -38
9 -41 13 -53 62 -53 208 -262 427 -466 488 -52 15 -183 40 -215 40 -19 0 -42
20 -92 80 -123 145 -253 229 -452 293 -96 30 -108 32 -261 32 -177 0 -221 -9
-352 -71 -53 -25 -86 -50 -126 -94 l-55 -61 -53 57 c-35 36 -79 69 -124 92
-120 60 -175 73 -325 77 -74 2 -146 1 -160 -1z m-976 -1670 c9 -8 16 -31 16
-49 0 -41 -22 -65 -61 -65 -57 0 -87 60 -53 108 18 26 74 30 98 6z m3360 0
c16 -16 21 -71 8 -90 -27 -41 -106 -28 -118 19 -6 25 9 66 30 79 19 13 64 9
80 -8z m-2095 -52 c27 -22 33 -35 33 -65 0 -47 -21 -80 -62 -97 -45 -18 -94 6
-115 57 -19 44 -8 82 33 113 34 28 72 25 111 -8z m848 8 c75 -45 68 -126 -15
-169 -52 -27 -122 25 -122 89 0 41 14 66 48 84 36 20 51 20 89 -4z"/>
<path d="M2098 8186 c-21 -15 -24 -76 -6 -94 7 -7 28 -12 48 -12 20 0 41 5 48
12 16 16 16 80 0 96 -16 16 -69 15 -90 -2z"/>
<path d="M5437 8182 c-25 -27 -22 -78 5 -96 33 -23 64 -19 88 11 22 28 21 63
-2 90 -16 19 -72 16 -91 -5z"/>
<path d="M1812 8067 c-23 -27 -24 -62 -2 -90 54 -68 141 6 100 84 -12 22 -81
27 -98 6z"/>
<path d="M5727 8062 c-44 -49 1 -127 61 -106 36 13 51 64 28 99 -20 30 -65 34
-89 7z"/>
<path d="M1463 7883 c-52 -18 -120 -92 -129 -140 -13 -67 0 -136 35 -186 38
-56 60 -72 122 -88 91 -24 188 26 231 120 33 72 34 108 4 173 -30 66 -81 112
-142 127 -54 14 -69 13 -121 -6z m131 -137 c42 -39 47 -79 16 -119 -51 -65
-145 -45 -164 35 -9 38 8 75 46 98 45 27 61 25 102 -14z"/>
<path d="M6024 7880 c-84 -33 -134 -110 -134 -206 0 -47 33 -126 66 -156 27
-24 111 -58 142 -58 79 1 178 74 200 148 20 67 15 122 -18 179 -55 95 -156
132 -256 93z m111 -114 c41 -17 55 -42 55 -95 0 -50 -35 -81 -89 -81 -40 1
-62 14 -79 47 -27 50 -9 107 41 128 40 18 32 17 72 1z"/>
<path d="M4264 7821 c-147 -36 -225 -207 -160 -347 23 -49 87 -114 113 -114 7
0 13 -3 13 -7 0 -5 2 -105 3 -223 2 -118 7 -223 11 -233 12 -25 52 -32 81 -13
l25 16 0 215 0 215 53 23 c57 26 109 78 132 134 34 80 6 213 -56 270 -60 53
-148 80 -215 64z m129 -146 c35 -35 51 -78 43 -117 -12 -62 -58 -98 -125 -98
-45 0 -96 36 -112 79 -15 38 -1 97 31 131 25 26 35 30 83 30 45 0 59 -4 80
-25z"/>
<path d="M3199 7791 c-88 -57 -119 -112 -119 -216 0 -101 42 -166 140 -218
l45 -24 3 -213 c2 -181 5 -217 19 -232 19 -22 52 -23 79 -4 18 13 19 30 21
233 2 120 3 221 3 225 0 3 17 15 37 25 48 25 98 99 114 169 22 98 -23 194
-120 256 -38 23 -56 28 -111 28 -56 0 -73 -5 -111 -29z m194 -119 c95 -90 9
-246 -118 -211 -86 24 -112 152 -42 217 43 39 115 37 160 -6z"/>
<path d="M1090 7272 c-74 -24 -61 -122 16 -122 38 0 54 16 54 55 0 41 -39 78
-70 67z"/>
<path d="M6520 7272 c-45 -15 -62 -60 -40 -103 12 -22 78 -27 98 -7 37 37 -10
126 -58 110z"/>
<path d="M2317 7256 c-96 -35 -155 -111 -164 -214 -12 -136 53 -230 185 -268
49 -15 59 -15 110 0 76 21 124 58 157 118 61 112 26 266 -75 330 -76 48 -142
59 -213 34z m133 -121 c42 -22 84 -96 75 -135 -8 -38 -48 -86 -87 -106 -60
-31 -133 4 -162 77 -44 109 70 218 174 164z"/>
<path d="M5170 7261 c-75 -23 -130 -71 -162 -140 -29 -64 -22 -179 14 -236 33
-51 53 -69 108 -94 116 -53 264 -1 322 113 33 65 30 166 -8 236 -52 96 -175
151 -274 121z m133 -137 c38 -28 72 -95 63 -127 -10 -41 -64 -95 -106 -108
-32 -10 -44 -9 -76 7 -46 22 -84 75 -84 116 0 110 118 175 203 112z"/>
<path d="M982 6734 c-25 -17 -31 -74 -9 -92 44 -36 110 -12 110 41 0 56 -54
84 -101 51z"/>
<path d="M6566 6734 c-9 -8 -16 -31 -16 -49 0 -69 88 -85 115 -21 13 31 6 62
-19 78 -19 13 -64 9 -80 -8z"/>
<path d="M2605 6585 c-14 -13 -25 -33 -25 -45 0 -26 43 -70 67 -70 10 0 29 7
41 16 45 31 16 124 -38 124 -12 0 -32 -11 -45 -25z"/>
<path d="M4944 6598 c-34 -16 -47 -54 -29 -87 25 -49 72 -55 104 -15 28 36 26
68 -5 93 -30 23 -39 24 -70 9z"/>
<path d="M1622 6260 c-15 -25 -16 -72 0 -88 7 -7 28 -12 48 -12 20 0 41 5 48
12 18 18 14 73 -6 91 -26 24 -74 22 -90 -3z"/>
<path d="M5905 6250 c-13 -26 -14 -35 -3 -58 11 -22 21 -28 53 -30 45 -4 65
14 65 58 0 35 -29 60 -68 60 -25 0 -35 -6 -47 -30z"/>
<path d="M1407 5992 c-22 -24 -21 -65 1 -85 17 -15 58 -17 384 -17 l365 0 29
-33 c16 -18 106 -105 199 -192 94 -88 171 -166 173 -172 3 -10 -98 -13 -485
-13 l-488 0 -120 -120 -120 -120 -205 0 c-147 0 -209 -3 -218 -12 -20 -20 -15
-76 7 -88 12 -6 107 -10 241 -10 l221 0 62 59 c34 32 88 84 119 115 l58 56
456 -2 455 -3 18 -53 c25 -72 67 -122 131 -154 94 -49 198 -35 279 38 l47 42
64 -7 65 -7 132 -134 132 -135 2 -415 c1 -228 2 -469 3 -534 1 -78 -3 -121
-10 -123 -6 -2 -29 22 -52 54 -23 32 -72 94 -110 138 l-68 80 -104 3 c-115 3
-130 -4 -130 -58 0 -41 17 -50 97 -50 l73 0 72 -86 c40 -48 110 -130 154 -182
l82 -96 -5 -400 c-6 -455 -5 -459 54 -454 28 2 41 9 50 28 10 20 13 252 13
1077 l0 1052 -59 68 c-32 38 -110 118 -173 180 l-113 112 -65 3 -65 3 -6 55
c-3 30 -11 67 -17 82 -17 42 -91 117 -130 134 -57 23 -156 18 -214 -11 l-50
-25 -187 184 c-102 101 -202 198 -222 215 l-37 31 -384 0 c-360 0 -386 -1
-401 -18z m1488 -518 c61 -61 59 -140 -6 -198 -33 -30 -46 -36 -85 -36 -63 0
-98 21 -124 75 -24 50 -22 97 8 147 37 64 149 70 207 12z"/>
<path d="M5325 5914 c-55 -52 -155 -149 -221 -216 l-122 -120 -47 27 c-61 37
-159 40 -221 7 -78 -40 -131 -120 -143 -217 l-6 -50 -68 -5 -68 -5 -160 -162
c-87 -88 -163 -173 -169 -188 -13 -35 -14 -2314 0 -2349 13 -36 56 -45 83 -17
22 21 22 24 26 544 l3 523 32 36 c87 100 133 155 157 187 15 20 47 57 71 84
l45 47 69 0 c77 0 94 9 94 51 0 49 -21 59 -130 59 l-98 0 -33 -38 c-19 -20
-63 -75 -99 -121 -36 -46 -72 -93 -81 -104 -9 -11 -21 -17 -27 -14 -7 5 -10
166 -8 538 l3 531 133 133 c130 130 135 134 194 148 l61 13 51 -46 c136 -122
329 -82 404 84 10 23 20 50 22 61 3 20 12 20 466 23 l462 2 118 -115 117 -115
227 0 c248 0 258 2 258 59 0 49 -9 51 -220 51 -136 1 -202 4 -217 13 -13 7
-72 61 -131 120 l-109 107 -486 0 c-342 0 -487 3 -487 11 0 6 37 45 82 87 45
42 137 130 203 194 l120 118 355 0 c392 0 400 1 400 59 0 61 2 61 -421 61
l-384 0 -100 -96z m-425 -423 c57 -40 76 -129 40 -188 -25 -41 -68 -63 -124
-63 -36 0 -52 6 -81 31 -62 55 -67 123 -13 201 34 49 123 58 178 19z"/>
<path d="M1236 5639 c-48 -37 -25 -109 35 -109 33 0 56 19 64 52 5 21 1 33
-19 52 -31 31 -45 32 -80 5z"/>
<path d="M6315 5635 c-46 -45 -22 -105 43 -105 33 0 62 29 62 63 0 22 -43 67
-65 67 -9 0 -27 -11 -40 -25z"/>
<path d="M2035 5127 c-61 -20 -91 -44 -123 -95 -43 -70 -53 -122 -36 -185 8
-29 14 -57 14 -63 0 -5 -20 -24 -45 -42 l-45 -32 -46 36 c-110 83 -211 86
-303 8 -50 -42 -74 -98 -74 -174 0 -68 8 -92 50 -148 45 -61 145 -93 223 -72
89 24 143 80 166 173 8 29 23 59 34 67 12 8 44 32 71 53 50 38 51 38 84 23 40
-19 157 -21 200 -2 28 12 33 10 77 -21 l47 -34 147 2 147 3 27 -56 c14 -31 32
-64 40 -73 49 -59 197 -76 269 -31 81 52 120 141 100 234 -22 105 -103 175
-208 176 -78 1 -129 -24 -175 -85 l-36 -49 -133 0 c-176 0 -172 -3 -172 132 0
98 -1 105 -30 147 -45 68 -116 114 -179 118 -28 1 -69 -3 -91 -10z m142 -134
c12 -8 29 -33 38 -56 14 -35 15 -47 4 -80 -37 -113 -183 -117 -229 -7 -44 107
87 208 187 143z m746 -274 c86 -92 -45 -225 -141 -144 -38 32 -48 72 -28 119
29 69 115 82 169 25z m-1254 -60 c54 -53 53 -110 -1 -161 -45 -41 -99 -39
-144 6 -39 39 -45 89 -17 136 34 59 113 68 162 19z"/>
<path d="M5435 5125 c-50 -18 -131 -102 -145 -153 -13 -48 -13 -97 1 -146 9
-34 8 -41 -10 -60 -19 -19 -35 -21 -164 -24 l-142 -3 -24 36 c-35 53 -80 84
-137 94 -67 13 -137 -3 -179 -41 -43 -37 -85 -125 -85 -176 0 -70 59 -165 124
-199 39 -21 153 -20 193 0 40 21 99 91 113 133 l12 34 148 0 148 0 51 35 c45
31 54 34 74 23 39 -21 118 -26 179 -11 l58 15 70 -47 c43 -28 72 -55 74 -68 3
-12 8 -35 11 -52 10 -49 51 -102 102 -132 40 -23 59 -27 118 -27 95 0 144 29
199 117 23 38 31 121 17 175 -24 86 -124 162 -215 162 -54 0 -99 -18 -160 -64
l-46 -36 -45 32 c-42 30 -45 35 -38 63 4 16 8 62 8 100 0 75 -12 101 -79 173
-51 55 -151 75 -231 47z m138 -127 c45 -24 67 -61 67 -112 0 -29 -8 -44 -40
-76 -34 -34 -46 -40 -83 -40 -63 0 -107 40 -114 101 -6 54 16 111 50 127 30
14 93 15 120 0z m-763 -253 c40 -20 60 -53 60 -95 0 -41 -22 -71 -67 -94 -31
-16 -35 -15 -73 4 -46 23 -60 45 -60 93 0 52 48 104 98 106 7 1 26 -6 42 -14z
m1276 -73 c12 -9 30 -32 39 -51 15 -30 15 -39 4 -74 -24 -73 -104 -98 -170
-54 -60 41 -64 116 -7 169 36 33 100 38 134 10z"/>
<path d="M1157 4943 c-40 -46 -15 -113 42 -113 57 0 82 70 39 110 -27 25 -60
26 -81 3z"/>
<path d="M6382 4940 c-26 -24 -29 -72 -6 -94 36 -37 114 -3 114 49 0 27 -39
65 -66 65 -11 0 -30 -9 -42 -20z"/>
<path d="M2080 4450 c-25 -25 -26 -72 -2 -93 41 -37 112 -6 112 48 0 32 -33
65 -65 65 -14 0 -34 -9 -45 -20z"/>
<path d="M5457 4452 c-22 -25 -21 -75 1 -95 39 -36 112 -4 112 48 0 53 -78 86
-113 47z"/>
<path d="M2407 4389 c-34 -26 -36 -67 -4 -97 29 -27 47 -28 81 -1 45 36 30 95
-30 113 -14 4 -30 -1 -47 -15z"/>
<path d="M5132 4388 c-20 -20 -14 -75 10 -98 27 -25 39 -25 72 1 18 14 26 30
26 53 0 41 -16 56 -60 56 -20 0 -41 -5 -48 -12z"/>
<path d="M9006 4021 c-40 -44 9 -133 63 -116 84 26 77 135 -8 135 -25 0 -44
-7 -55 -19z"/>
<path d="M1017 3929 c-39 -23 -41 -86 -3 -111 36 -24 96 11 96 57 0 27 -35 65
-59 65 -9 0 -24 -5 -34 -11z"/>
<path d="M9004 3766 c-3 -7 -4 -132 -2 -277 3 -235 5 -267 21 -291 34 -50 121
-74 162 -45 17 13 17 15 -5 55 -14 24 -32 42 -44 44 -21 3 -21 8 -24 266 l-2
262 -50 0 c-34 0 -52 -5 -56 -14z"/>
<path d="M6567 3763 c-4 -3 -7 -183 -7 -398 l0 -392 -72 -8 c-40 -3 -176 -6
-303 -4 -126 1 -240 -1 -252 -5 -29 -9 -38 -52 -18 -82 l15 -24 316 0 c340 0
343 0 394 55 23 24 25 35 28 133 4 137 3 135 46 117 50 -21 161 -19 212 4 61
28 109 75 135 133 21 46 24 68 24 163 0 90 -4 118 -21 156 -25 53 -80 110
-132 135 -52 25 -161 30 -212 10 -36 -14 -41 -14 -46 -1 -4 10 -21 15 -53 15
-26 0 -51 -3 -54 -7z m306 -107 c42 -18 82 -62 95 -106 18 -59 8 -192 -16
-232 -66 -107 -221 -102 -268 9 -21 49 -19 219 4 263 34 69 112 97 185 66z"/>
<path d="M7337 3746 c-65 -32 -95 -61 -123 -121 -21 -44 -24 -65 -24 -171 0
-114 2 -125 28 -175 48 -93 152 -146 263 -136 83 7 146 44 204 121 29 39 30
42 33 177 4 128 2 141 -19 184 -27 54 -75 100 -133 126 -61 28 -167 25 -229
-5z m193 -96 c21 -11 49 -34 62 -52 20 -30 23 -44 23 -138 0 -84 -4 -111 -18
-135 -53 -87 -178 -106 -249 -38 -48 46 -58 74 -58 169 0 75 3 93 25 131 46
77 136 103 215 63z"/>
<path d="M7971 3740 c-73 -40 -87 -54 -116 -116 -22 -47 -25 -66 -25 -167 0
-107 2 -118 30 -173 33 -64 74 -99 153 -129 75 -28 216 -13 291 31 20 12 20
13 1 53 -20 45 -29 48 -78 27 -87 -36 -183 -27 -238 22 -35 32 -62 101 -47
119 7 9 66 13 207 15 l196 3 3 55 c2 30 -2 79 -8 109 -10 45 -22 64 -64 106
-58 58 -103 75 -192 75 -47 0 -71 -7 -113 -30z m200 -93 c37 -24 74 -89 65
-113 -5 -12 -29 -14 -148 -12 -163 3 -172 9 -123 74 57 75 140 95 206 51z"/>
<path d="M8548 3750 c-76 -40 -111 -123 -89 -207 15 -57 62 -98 145 -129 98
-36 116 -45 134 -72 13 -20 13 -26 1 -49 -18 -34 -72 -56 -116 -48 -25 4 -40
16 -55 41 -18 31 -24 34 -70 34 l-50 0 7 -32 c11 -52 32 -85 71 -115 30 -22
49 -28 103 -31 57 -3 73 0 120 25 77 40 96 70 96 148 0 49 -5 70 -21 92 -29
39 -79 71 -140 89 -81 23 -118 53 -122 96 -4 50 34 80 97 76 41 -3 48 -7 74
-45 25 -38 33 -43 67 -43 21 0 42 5 45 11 22 35 -35 133 -96 165 -42 21 -155
18 -201 -6z"/>
<path d="M9400 3757 c-96 -45 -134 -118 -110 -209 18 -65 72 -110 169 -143 78
-26 121 -58 121 -90 0 -27 -41 -63 -78 -70 -51 -8 -86 7 -102 44 -11 28 -16
31 -60 31 -25 0 -49 -3 -53 -6 -9 -9 20 -94 40 -116 27 -31 93 -58 143 -58 73
0 121 19 167 65 41 41 43 45 43 104 0 104 -29 139 -158 185 -100 36 -108 41
-121 77 -12 35 5 82 34 93 57 21 124 -5 140 -54 7 -23 44 -35 80 -26 56 14 17
119 -60 163 -45 26 -150 31 -195 10z"/>
<path d="M2006 3688 c-34 -49 -10 -98 49 -98 37 0 65 28 65 66 0 51 -84 75
-114 32z"/>
<path d="M2430 3697 c-31 -16 -39 -61 -14 -88 16 -18 34 -19 304 -19 268 0
289 -1 311 -19 l24 -19 5 -576 c5 -622 3 -595 57 -596 54 0 53 -17 53 611 0
550 -1 582 -19 617 -25 49 -60 80 -102 92 -52 15 -588 13 -619 -3z"/>
<path d="M4580 3700 c-44 -10 -100 -72 -117 -129 -10 -30 -13 -180 -13 -594 0
-484 2 -555 16 -575 19 -28 57 -28 84 0 20 21 20 32 20 584 l0 563 26 20 c26
21 36 21 494 21 440 0 468 1 483 18 24 26 21 68 -5 86 -20 14 -82 16 -488 15
-256 -1 -481 -5 -500 -9z"/>
<path d="M6104 3621 c-30 -5 -44 -21 -44 -50 1 -62 35 -73 203 -65 163 7 171
8 184 36 12 26 1 66 -19 73 -16 5 -299 11 -324 6z"/>
<path d="M1172 3608 c-17 -17 -15 -64 4 -82 13 -13 45 -16 189 -16 166 0 175
1 195 22 24 26 25 37 4 66 -15 21 -20 22 -198 22 -128 0 -186 -4 -194 -12z"/>
<path d="M1112 3347 c-12 -13 -22 -33 -22 -44 0 -22 43 -63 65 -63 24 0 65 41
65 65 0 29 -36 65 -65 65 -12 0 -31 -10 -43 -23z"/>
<path d="M1526 3348 c-21 -29 -20 -51 2 -71 17 -15 58 -17 385 -17 319 0 368
2 381 16 18 18 20 47 6 75 -10 18 -25 19 -385 19 l-374 0 -15 -22z"/>
<path d="M2442 3358 c-17 -17 -15 -64 3 -82 23 -23 76 -29 178 -22 115 7 131
12 147 41 11 20 10 28 -4 50 -16 25 -17 25 -164 25 -102 0 -152 -4 -160 -12z"/>
<path d="M4862 3358 c-7 -7 -12 -27 -12 -45 0 -46 37 -63 132 -62 94 0 140 16
152 51 8 22 6 32 -9 48 -16 18 -30 20 -135 20 -77 0 -120 -4 -128 -12z"/>
<path d="M5272 3358 c-22 -22 -15 -76 13 -94 22 -14 62 -15 391 -9 201 3 372
9 379 11 23 9 29 63 9 85 -16 18 -34 19 -399 19 -283 0 -384 -3 -393 -12z"/>
<path d="M2470 3084 c-42 -18 -79 -51 -91 -81 -8 -23 -12 -23 -167 -23 -139 0
-161 -2 -174 -17 -25 -30 -28 -51 -10 -72 16 -19 30 -21 177 -23 155 -3 160
-4 171 -26 16 -32 64 -81 96 -98 79 -41 204 11 237 99 17 45 13 117 -10 163
-36 76 -147 114 -229 78z m120 -124 c43 -43 13 -110 -49 -110 -43 0 -58 13
-67 57 -12 60 71 98 116 53z"/>
<path d="M5005 3081 c-69 -32 -105 -87 -105 -162 0 -108 90 -196 191 -187 63
6 127 49 152 101 l17 37 160 0 c147 0 160 1 170 19 16 31 12 69 -9 81 -11 5
-85 10 -169 10 l-149 0 -33 41 c-59 73 -146 97 -225 60z m125 -121 c26 -26 25
-64 -2 -90 -24 -22 -77 -27 -96 -8 -17 17 -15 78 5 100 21 24 68 23 93 -2z"/>
<path d="M1093 2953 c-22 -8 -16 -81 7 -93 12 -7 123 -9 317 -8 l298 3 13 28
c12 24 11 31 -2 53 l-16 24 -303 -1 c-166 0 -308 -3 -314 -6z"/>
<path d="M3766 2798 c-12 -17 -16 -48 -16 -125 0 -90 3 -106 20 -123 25 -25
62 -26 83 -2 14 15 17 40 17 126 0 59 -5 116 -10 127 -15 28 -74 26 -94 -3z"/>
<path d="M3449 2653 c-26 -7 -39 -49 -39 -131 0 -112 36 -150 99 -106 22 16
23 21 19 116 -2 85 -6 102 -22 114 -20 14 -28 15 -57 7z"/>
<path d="M4109 2433 c-20 -23 -19 -151 1 -163 27 -17 68 -11 84 12 18 25 21
103 6 142 -8 21 -16 26 -44 26 -19 0 -39 -7 -47 -17z"/>
<path d="M3766 2341 c-24 -27 -17 -70 16 -94 25 -19 30 -19 54 -7 46 25 51 85
10 112 -21 14 -63 8 -80 -11z"/>
<path d="M3429 2233 c-10 -12 -14 -53 -14 -159 0 -131 2 -144 20 -158 28 -21
51 -20 76 5 20 20 21 30 17 158 -2 98 -7 143 -17 154 -17 22 -65 22 -82 0z"/>
<path d="M3078 2146 c-30 -15 -37 -70 -12 -97 38 -42 104 -12 104 48 0 47 -47
71 -92 49z"/>
<path d="M4490 2153 c-39 -16 -51 -63 -24 -101 22 -31 67 -29 93 4 27 34 26
50 -4 79 -24 25 -37 28 -65 18z"/>
<path d="M4112 2044 c-24 -17 -30 -61 -12 -95 14 -25 71 -26 93 -1 23 25 21
68 -3 92 -24 24 -48 25 -78 4z"/>
</g>
</svg>
